<?xml version="1.0" encoding="UTF-8"?>
<svg version="1.1" xmlns="http://www.w3.org/2000/svg" width="480" height="360">
<path d="M0 0 C158.4 0 316.8 0 480 0 C480 118.8 480 237.6 480 360 C321.6 360 163.2 360 0 360 C0 241.2 0 122.4 0 0 Z " fill="#856F6B" transform="translate(0,0)"/>
<path d="M0 0 C30.36 0 60.72 0 92 0 C92.495 5.94 92.495 5.94 93 12 C93.495 12.99 93.495 12.99 94 14 C93.67 14.66 93.34 15.32 93 16 C92.90043776 17.8707465 92.86610342 19.7450832 92.8613348 21.61847115 C92.85586036 22.82074132 92.85038591 24.0230115 92.84474558 25.2617141 C92.84366924 26.60783578 92.84268457 27.95395754 92.84178162 29.30007935 C92.83721862 30.72073821 92.83221899 32.14139573 92.82681805 33.56205165 C92.81319764 37.4796714 92.80580733 41.39728244 92.79939139 45.31491971 C92.79140453 49.53442997 92.77770089 53.75392201 92.76467896 57.97341919 C92.74289181 65.28855953 92.72475553 72.60370169 92.70907402 79.91885757 C92.68639574 90.4954449 92.65825011 101.07201207 92.62875474 111.64858232 C92.58105375 128.80689105 92.53779638 145.965208 92.49731445 163.12353516 C92.45797227 179.79476563 92.41654912 196.46598879 92.37231445 213.13720703 C92.36959018 214.16420806 92.36686591 215.19120909 92.36405908 216.24933137 C92.35037982 221.4013107 92.3366595 226.55328993 92.32291877 231.7052691 C92.20891462 274.47016506 92.10292918 317.23507567 92 360 C61.64 360 31.28 360 0 360 C0 241.2 0 122.4 0 0 Z " fill="#000000" transform="translate(0,0)"/>
<path d="M0 0 C30.36 0 60.72 0 92 0 C92 118.8 92 237.6 92 360 C61.64 360 31.28 360 0 360 C0 241.2 0 122.4 0 0 Z " fill="#000000" transform="translate(388,0)"/>
<path d="M0 0 C0.33 0 0.66 0 1 0 C1 118.8 1 237.6 1 360 C-96.68 360 -194.36 360 -295 360 C-295 359.67 -295 359.34 -295 359 C-197.65 359 -100.3 359 0 359 C-0.14866675 300.9785021 -0.14866675 300.9785021 -0.30664062 242.95703125 C-0.32860751 235.14143901 -0.35051261 227.32584661 -0.37231445 219.51025391 C-0.37504964 218.53065716 -0.37778483 217.55106042 -0.3806029 216.54177892 C-0.42470655 200.71394008 -0.46532049 184.8860941 -0.50465261 169.05824277 C-0.54507651 152.82219434 -0.58923398 136.58615918 -0.63687855 120.35013032 C-0.66617432 110.32657787 -0.69253596 100.30302643 -0.71517897 90.2794567 C-0.73097147 83.41178764 -0.75038094 76.54413482 -0.77266841 69.67648378 C-0.78543123 65.71051722 -0.79656701 61.74456317 -0.80341911 57.77858162 C-0.80972288 54.15028753 -0.82055131 50.52203659 -0.8350333 46.89376619 C-0.84158253 44.95416374 -0.84324073 43.01454669 -0.84474558 41.07493377 C-0.85022002 39.92789922 -0.85569446 38.78086467 -0.8613348 37.5990715 C-0.86399284 36.607242 -0.86665089 35.6154125 -0.86938947 34.59352756 C-0.9880392 32.23750499 -1.40347872 30.26779627 -2 28 C-1.70450964 26.65777262 -1.36680999 25.32451475 -1 24 C-0.85492152 22.12243262 -0.75366301 20.24123507 -0.68359375 18.359375 C-0.64169922 17.28945313 -0.59980469 16.21953125 -0.55664062 15.1171875 C-0.49766602 13.45042969 -0.49766602 13.45042969 -0.4375 11.75 C-0.39431641 10.62335937 -0.35113281 9.49671875 -0.30664062 8.3359375 C-0.20067985 5.55741046 -0.09860858 2.77879609 0 0 Z " fill="#504643" transform="translate(387,0)"/>
<path d="M0 0 C0.495 0.99 0.495 0.99 1 2 C2.65 2 4.3 2 6 2 C6 2.33 6 2.66 6 3 C36.03 3.33 66.06 3.66 97 4 C97 4.33 97 4.66 97 5 C92.05 5.33 87.1 5.66 82 6 C81.67 6.99 81.34 7.98 81 9 C67.1258015 9.02344301 53.25160611 9.04096823 39.37739182 9.05181217 C32.93420472 9.05701818 26.49103098 9.0640742 20.04785156 9.07543945 C13.82329427 9.08634966 7.59874978 9.09229401 1.37418365 9.09487724 C-0.99390616 9.09671688 -3.36199532 9.1003091 -5.73007965 9.10573006 C-9.06127914 9.11304857 -12.39242651 9.11398642 -15.72363281 9.11352539 C-16.69036926 9.11712067 -17.65710571 9.12071594 -18.65313721 9.12442017 C-25.47690525 9.11428167 -32.20878579 8.65444507 -39 8 C-38.67 7.01 -38.34 6.02 -38 5 C-37.36191406 5.01160156 -36.72382813 5.02320313 -36.06640625 5.03515625 C-35.24011719 5.04417969 -34.41382813 5.05320312 -33.5625 5.0625 C-32.32693359 5.07990234 -32.32693359 5.07990234 -31.06640625 5.09765625 C-29.00836062 5.23267348 -29.00836062 5.23267348 -28 4 C-26.35270853 3.85454049 -24.699693 3.77278996 -23.046875 3.71875 C-22.03496094 3.68136719 -21.02304688 3.64398438 -19.98046875 3.60546875 C-18.91441406 3.57066406 -17.84835938 3.53585937 -16.75 3.5 C-14.66133172 3.43080485 -12.57277894 3.35801009 -10.484375 3.28125 C-9.08783691 3.23581055 -9.08783691 3.23581055 -7.66308594 3.18945312 C-5.03429595 3.00243983 -2.56939376 2.57459507 0 2 C0 1.34 0 0.68 0 0 Z " fill="#786862" transform="translate(215,350)"/>
<path d="M0 0 C0.33 0 0.66 0 1 0 C1.06058594 1.07378906 1.12117188 2.14757812 1.18359375 3.25390625 C1.26807651 4.69011315 1.35272054 6.12631058 1.4375 7.5625 C1.47681641 8.26697266 1.51613281 8.97144531 1.55664062 9.69726562 C1.75948374 13.08318524 2.05433059 16.35918558 2.5625 19.71875 C2.9561734 22.67130049 2.96813901 25.00788493 2.5625 27.9375 C2.40974609 29.09572266 2.40974609 29.09572266 2.25390625 30.27734375 C2.17011719 30.84582031 2.08632812 31.41429688 2 32 C1.34 32 0.68 32 0 32 C0 32.99 0 33.98 0 35 C0.66 35.33 1.32 35.66 2 36 C1.34 37.32 0.68 38.64 0 40 C0.66 40 1.32 40 2 40 C2.33 39.01 2.66 38.02 3 37 C3.02687279 38.81242052 3.04633715 40.62495233 3.0625 42.4375 C3.07410156 43.44683594 3.08570312 44.45617188 3.09765625 45.49609375 C3 48 3 48 2 49 C1.84820622 51.30901696 1.77818878 53.62367069 1.75 55.9375 C1.72421875 57.20464844 1.6984375 58.47179687 1.671875 59.77734375 C1.78015625 60.84082031 1.8884375 61.90429688 2 63 C2.99 63.66 3.98 64.32 5 65 C5.99 64.505 5.99 64.505 7 64 C7.99 64.33 8.98 64.66 10 65 C9.4946875 65.34546875 8.989375 65.6909375 8.46875 66.046875 C5.35389139 68.74147491 3.26354285 71.08380687 2.68457031 75.29345703 C2.45355287 80.52096716 2.66551051 85.73128174 3.00244141 90.95043945 C3 93 3 93 2 96 C1.8857457 97.52435669 1.82381955 99.05294412 1.79467773 100.58129883 C1.77473251 101.51110062 1.75478729 102.4409024 1.73423767 103.39888 C1.71752518 104.40806992 1.70081268 105.41725983 1.68359375 106.45703125 C1.66281265 107.51041183 1.64203156 108.56379242 1.62062073 109.64909363 C1.57730242 111.89272971 1.5362673 114.13641084 1.49731445 116.38012695 C1.43887923 119.73335459 1.37343881 123.08638286 1.30664062 126.43945312 C1.04150935 140.29439025 0.94523505 154.14272948 1 168 C1.99 168.33 2.98 168.66 4 169 C3.67 171.31 3.34 173.62 3 176 C1.68 176 0.36 176 -1 176 C-1.02332654 153.20010659 -1.04097797 130.40021514 -1.05181217 107.60031223 C-1.05697565 97.01470606 -1.06401933 86.42910728 -1.07543945 75.84350586 C-1.08538471 66.62062241 -1.09185305 57.39774431 -1.09408849 48.17485565 C-1.09539587 43.28823588 -1.09848342 38.40163143 -1.10573006 33.51501656 C-1.11248778 28.92112539 -1.11461747 24.32725595 -1.11310768 19.73336029 C-1.11338412 18.04220652 -1.11539071 16.35105206 -1.11920547 14.65990257 C-1.12413887 12.36121824 -1.12299962 10.0626173 -1.12025452 7.76393127 C-1.12117631 6.47434289 -1.1220981 5.18475451 -1.12304783 3.85608768 C-1 1 -1 1 0 0 Z " fill="#776161" transform="translate(93,16)"/>
<path d="M0 0 C0.85667267 0.00359528 1.71334534 0.00719055 2.59597778 0.01089478 C3.4934523 0.01074875 4.39092682 0.01060272 5.31559753 0.01045227 C8.29702123 0.01115175 11.27838329 0.01894575 14.25979614 0.02676392 C16.32102932 0.02862797 18.38226293 0.03005193 20.4434967 0.03105164 C25.88017999 0.03487779 31.31683675 0.04470891 36.75350952 0.05575562 C42.29661704 0.06596764 47.83972882 0.07054881 53.38284302 0.07559204 C64.26762033 0.08633109 75.15237791 0.10340868 86.03713989 0.12442017 C85.70713989 0.78442017 85.37713989 1.44442017 85.03713989 2.12442017 C82.06713989 2.12442017 79.09713989 2.12442017 76.03713989 2.12442017 C75.70713989 2.78442017 75.37713989 3.44442017 75.03713989 4.12442017 C78.99713989 4.12442017 82.95713989 4.12442017 87.03713989 4.12442017 C87.03713989 4.45442017 87.03713989 4.78442017 87.03713989 5.12442017 C56.34713989 5.12442017 25.65713989 5.12442017 -5.96286011 5.12442017 C-6.29286011 3.80442017 -6.62286011 2.48442017 -6.96286011 1.12442017 C-5.10704045 -0.73139949 -2.46887705 0.0043765 0 0 Z " fill="#7B7481" transform="translate(100.96286010742188,353.8755798339844)"/>
<path d="M0 0 C0.99 0 1.98 0 3 0 C3 1.65 3 3.3 3 5 C3.99 5 4.98 5 6 5 C6 4.34 6 3.68 6 3 C8.475 3.99 8.475 3.99 11 5 C10.67 5.66 10.34 6.32 10 7 C9.75212983 11.14503661 9.75212983 11.14503661 11 15 C11.039992 16.99960012 11.04346799 19.00047242 11 21 C11.99 21 12.98 21 14 21 C15.67578125 22.19140625 15.67578125 22.19140625 17 24 C17.29296875 26.33984375 17.29296875 26.33984375 17.1875 28.9375 C17.16042969 29.79214844 17.13335937 30.64679688 17.10546875 31.52734375 C17.07066406 32.34332031 17.03585937 33.15929687 17 34 C17 35.32 17 36.64 17 38 C17 38.99 17 39.98 17 41 C17.66 41 18.32 41 19 41 C20.09587955 45.24551856 19.92865836 48.9592839 19.5625 53.3125 C19.46066406 54.56675781 19.35882813 55.82101563 19.25390625 57.11328125 C19.17011719 58.06589844 19.08632813 59.01851562 19 60 C17 57 17 57 16 54 C15.67 56.31 15.34 58.62 15 61 C14.67 61 14.34 61 14 61 C12.76590711 54.90666636 11.8776593 49.23937577 12 43 C11.70814937 40.9935269 11.38830401 38.99005807 11 37 C10.34 37 9.68 37 9 37 C8.86722656 36.07316406 8.73445313 35.14632812 8.59765625 34.19140625 C8.42105469 32.99386719 8.24445313 31.79632813 8.0625 30.5625 C7.88847656 29.36753906 7.71445312 28.17257813 7.53515625 26.94140625 C7.31014787 24.12044324 7.31014787 24.12044324 6 23 C5.76712992 21.31816052 5.58735834 19.6287584 5.4375 17.9375 C5.35371094 17.01839844 5.26992188 16.09929687 5.18359375 15.15234375 C5.09271484 14.08693359 5.09271484 14.08693359 5 13 C4.34 13 3.68 13 3 13 C2.67 12.34 2.34 11.68 2 11 C1.01 10.67 0.02 10.34 -1 10 C-1.125 2.25 -1.125 2.25 0 0 Z " fill="#6A5155" transform="translate(253,91)"/>
<path d="M0 0 C6.93327954 -0.18383696 13.73440254 1.04497905 20.5625 2.1328125 C20.5625 3.4528125 20.5625 4.7728125 20.5625 6.1328125 C15.65527707 6.15781795 10.74809248 6.17581475 5.84082031 6.18774414 C4.17675123 6.19272542 2.51268641 6.19951287 0.84863281 6.20825195 C-8.63399973 6.25674917 -17.99659079 6.1728133 -27.4375 5.1328125 C-27.1075 4.1428125 -26.7775 3.1528125 -26.4375 2.1328125 C-25.79941406 2.14441406 -25.16132813 2.15601563 -24.50390625 2.16796875 C-23.67761719 2.17699219 -22.85132813 2.18601562 -22 2.1953125 C-20.76443359 2.21271484 -20.76443359 2.21271484 -19.50390625 2.23046875 C-17.44586062 2.36548598 -17.44586062 2.36548598 -16.4375 1.1328125 C-10.97726073 0.52528588 -5.48434399 0.29882644 0 0 Z " fill="#796774" transform="translate(203.4375,352.8671875)"/>
<path d="M0 0 C0.99 0.33 1.98 0.66 3 1 C3.84199783 4.82726289 4.23580033 7.32034023 2.9375 11.0625 C0.98623758 14.02086561 -1.051514 16.17969143 -3.6953125 18.5078125 C-5.24724936 20.2827822 -5.59582433 21.70309926 -6 24 C-7.670625 24.4640625 -7.670625 24.4640625 -9.375 24.9375 C-12.7945155 25.82326483 -12.7945155 25.82326483 -15 27 C-14.60570607 21.18416454 -14.04186143 18.39849627 -10 14 C-9.525625 13.0925 -9.05125 12.185 -8.5625 11.25 C-7 9 -7 9 -4.3125 8.1875 C-3.549375 8.125625 -2.78625 8.06375 -2 8 C-1.34 5.36 -0.68 2.72 0 0 Z " fill="#936766" transform="translate(206,136)"/>
<path d="M0 0 C0.33 0 0.66 0 1 0 C1.06058594 1.07378906 1.12117188 2.14757812 1.18359375 3.25390625 C1.26807651 4.69011315 1.35272054 6.12631058 1.4375 7.5625 C1.47681641 8.26697266 1.51613281 8.97144531 1.55664062 9.69726562 C1.75948374 13.08318524 2.05433059 16.35918558 2.5625 19.71875 C2.9561734 22.67130049 2.96813901 25.00788493 2.5625 27.9375 C2.40974609 29.09572266 2.40974609 29.09572266 2.25390625 30.27734375 C2.17011719 30.84582031 2.08632812 31.41429688 2 32 C1.34 32 0.68 32 0 32 C0 32.99 0 33.98 0 35 C0.66 35.33 1.32 35.66 2 36 C1.34 37.32 0.68 38.64 0 40 C0.66 40 1.32 40 2 40 C2.33 39.01 2.66 38.02 3 37 C3.02687279 38.81242052 3.04633715 40.62495233 3.0625 42.4375 C3.07410156 43.44683594 3.08570312 44.45617188 3.09765625 45.49609375 C3 48 3 48 2 49 C1.92674832 51.86267567 1.90761795 54.700719 1.9375 57.5625 C1.94201172 58.36880859 1.94652344 59.17511719 1.95117188 60.00585938 C1.96299482 62.00393756 1.98093086 64.00197783 2 66 C1.34 66 0.68 66 0 66 C-1.37034603 63.25930794 -1.12719926 61.07320667 -1.12939453 58.00561523 C-1.13254669 56.74768661 -1.13569885 55.489758 -1.13894653 54.19371033 C-1.13715689 52.81533778 -1.13510597 51.43696555 -1.1328125 50.05859375 C-1.1334858 48.6513721 -1.13445604 47.24415057 -1.13571167 45.83692932 C-1.13718695 42.88712456 -1.1350392 39.93735007 -1.13037109 36.98754883 C-1.12466866 33.19869045 -1.12795711 29.40990282 -1.13394356 25.62104702 C-1.13754928 22.71551475 -1.13641063 19.80999939 -1.13381577 16.90446663 C-1.1331468 15.50695856 -1.13397387 14.10944897 -1.13629532 12.71194267 C-1.13882255 10.76295881 -1.13429062 8.81396959 -1.12939453 6.86499023 C-1.12859894 5.75405502 -1.12780334 4.64311981 -1.12698364 3.4985199 C-1 1 -1 1 0 0 Z " fill="#402C32" transform="translate(93,16)"/>
<path d="M0 0 C0.33 0 0.66 0 1 0 C1 33 1 66 1 100 C0.67 100 0.34 100 0 100 C-0.01030746 99.33395752 -0.02061493 98.66791504 -0.03123474 97.98168945 C-0.14045209 90.97209086 -0.2549373 83.9625916 -0.37231445 76.953125 C-0.41529877 74.34637556 -0.45699475 71.73960452 -0.49731445 69.1328125 C-0.78587006 50.08250986 -0.78587006 50.08250986 -1.78393555 31.06054688 C-2.52681901 20.53762361 -2.1935985 10.34125009 0 0 Z " fill="#0E0203" transform="translate(91,84)"/>
<path d="M0 0 C0.66 0 1.32 0 2 0 C2 23.43 2 46.86 2 71 C1.01 71 0.02 71 -1 71 C-1 70.01 -1 69.02 -1 68 C-4.96 67.67 -8.92 67.34 -13 67 C-12.67 66.01 -12.34 65.02 -12 64 C-8.04 64 -4.08 64 0 64 C0 42.88 0 21.76 0 0 Z " fill="#70665C" transform="translate(385,288)"/>
<path d="M0 0 C0.33 0 0.66 0 1 0 C0.98839844 1.05960937 0.97679688 2.11921875 0.96484375 3.2109375 C0.95546524 4.59895658 0.94636511 5.98697755 0.9375 7.375 C0.92912109 8.07367188 0.92074219 8.77234375 0.91210938 9.4921875 C0.8164558 13.37295376 0.8164558 13.37295376 2 17 C2.12471635 20.74149042 2.16737143 24.07909096 1.49780273 27.76318359 C1.01159861 30.92458345 0.88587445 33.85964392 0.90234375 37.0546875 C0.90556641 38.16328125 0.90878906 39.271875 0.91210938 40.4140625 C0.92048828 41.55617188 0.92886719 42.69828125 0.9375 43.875 C0.94201172 45.0403125 0.94652344 46.205625 0.95117188 47.40625 C0.96291219 50.27088645 0.9793343 53.13541633 1 56 C2.89685547 56.07347656 2.89685547 56.07347656 4.83203125 56.1484375 C6.49220947 56.2234738 8.15236464 56.29902127 9.8125 56.375 C11.06256836 56.42140625 11.06256836 56.42140625 12.33789062 56.46875 C13.14033203 56.50742187 13.94277344 56.54609375 14.76953125 56.5859375 C15.50792236 56.6173584 16.24631348 56.6487793 17.00708008 56.68115234 C19 57 19 57 22 59 C15.4 59 8.8 59 2 59 C2.33 59.66 2.66 60.32 3 61 C2.67 61.66 2.34 62.32 2 63 C1.01 63 0.02 63 -1 63 C-1.02312737 54.93347826 -1.04091709 46.86697028 -1.05181217 38.80042362 C-1.05704014 35.05516963 -1.06413622 31.30993824 -1.07543945 27.56469727 C-1.08627141 23.95318313 -1.09227749 20.34169079 -1.09487724 16.73016167 C-1.09673094 15.34939671 -1.10035049 13.968633 -1.10573006 12.58787727 C-1.11294447 10.66024048 -1.11340809 8.73258193 -1.11352539 6.80493164 C-1.115746 5.70572891 -1.11796661 4.60652618 -1.12025452 3.47401428 C-1 1 -1 1 0 0 Z " fill="#666069" transform="translate(93,296)"/>
<path d="M0 0 C0.33 0 0.66 0 1 0 C1.02324295 8.20639437 1.04097576 16.41277481 1.05181217 24.61919403 C1.05701495 28.43038603 1.06406494 32.2415554 1.07543945 36.05273438 C1.08636135 39.73560303 1.09229643 43.41845001 1.09487724 47.10133362 C1.09671481 48.50143271 1.1003029 49.90153071 1.10573006 51.30162048 C1.13171497 58.2875077 1.10888916 65.09342391 0 72 C-0.33 72 -0.66 72 -1 72 C-2.6693779 22.39562814 -2.6693779 22.39562814 0 0 Z " fill="#6A6055" transform="translate(386,72)"/>
<path d="M0 0 C1.65 0 3.3 0 5 0 C4.175 0.99 3.35 1.98 2.5 3 C-0.51034789 7.14345637 -0.34548529 9.9904633 0 15 C-1 16 -1 16 -3.28515625 16.09765625 C-4.65994141 16.08025391 -4.65994141 16.08025391 -6.0625 16.0625 C-6.98160156 16.05347656 -7.90070313 16.04445312 -8.84765625 16.03515625 C-9.55792969 16.02355469 -10.26820313 16.01195312 -11 16 C-11 16.99 -11 17.98 -11 19 C-11.66 19 -12.32 19 -13 19 C-12.125 13.25 -12.125 13.25 -11 11 C-10.01 11 -9.02 11 -8 11 C-8 10.01 -8 9.02 -8 8 C-7.38125 7.9175 -6.7625 7.835 -6.125 7.75 C-3.81562433 7.18741541 -3.81562433 7.18741541 -2.75 4.9375 C-2.37875 3.9784375 -2.37875 3.9784375 -2 3 C-1.34 3 -0.68 3 0 3 C0 2.01 0 1.02 0 0 Z " fill="#7A4E5B" transform="translate(256,160)"/>
<path d="M0 0 C5.94 0 11.88 0 18 0 C17.01 0.495 17.01 0.495 16 1 C16 1.99 16 2.98 16 4 C18.64 4 21.28 4 24 4 C20.26034036 6.49310643 18.70929359 6.0603261 14.3125 5.625 C13.13300781 5.51414062 11.95351562 5.40328125 10.73828125 5.2890625 C9.83464844 5.19367188 8.93101562 5.09828125 8 5 C8 5.99 8 6.98 8 8 C5.33333333 7.33333333 2.66666667 6.66666667 0 6 C0 6.66 0 7.32 0 8 C-0.99 7.67 -1.98 7.34 -3 7 C-2.2575 6.38125 -2.2575 6.38125 -1.5 5.75 C0.43386092 3.87797662 0.43386092 3.87797662 0 0 Z " fill="#8B7176" transform="translate(184,120)"/>
<path d="M0 0 C0.33 0 0.66 0 1 0 C1 31.68 1 63.36 1 96 C0.67 96 0.34 96 0 96 C-0.0154612 94.81062836 -0.0154612 94.81062836 -0.03123474 93.597229 C-0.12923644 86.12260033 -0.23175469 78.64805368 -0.33933926 71.17355728 C-0.39448957 67.33090281 -0.4478968 63.48824062 -0.49731445 59.64550781 C-0.5450746 55.93665809 -0.59742136 52.22789881 -0.65294075 48.51915741 C-0.67331159 47.1046143 -0.69203325 45.69004644 -0.70907402 44.27545929 C-0.73323472 42.29328191 -0.76381723 40.31118596 -0.79467773 38.32910156 C-0.81022202 37.20103088 -0.8257663 36.07296021 -0.84178162 34.91070557 C-0.97677506 32.42726361 -1.36236554 30.38289923 -2 28 C-1.70450964 26.65777262 -1.36680999 25.32451475 -1 24 C-0.85492152 22.12243262 -0.75366301 20.24123507 -0.68359375 18.359375 C-0.62075195 16.75449219 -0.62075195 16.75449219 -0.55664062 15.1171875 C-0.51732422 14.00601562 -0.47800781 12.89484375 -0.4375 11.75 C-0.39431641 10.62335937 -0.35113281 9.49671875 -0.30664062 8.3359375 C-0.20067985 5.55741046 -0.09860858 2.77879609 0 0 Z " fill="#3E352F" transform="translate(387,0)"/>
<path d="M0 0 C-1.65 0.99 -3.3 1.98 -5 3 C-5 2.34 -5 1.68 -5 1 C-5.721875 1.474375 -6.44375 1.94875 -7.1875 2.4375 C-10 4 -10 4 -12.6875 4.5 C-15.36862189 4.79889882 -15.36862189 4.79889882 -17 8 C-17.70125 8.391875 -18.4025 8.78375 -19.125 9.1875 C-23.3431607 11.84677523 -26.56542349 15.41201809 -30 19 C-30.66 18.67 -31.32 18.34 -32 18 C-32 17.01 -32 16.02 -32 15 C-30.68212715 13.97971135 -29.34789347 12.98028616 -28 12 C-27.67 11.01 -27.34 10.02 -27 9 C-25.22265625 8.19140625 -25.22265625 8.19140625 -23.0625 7.5625 C-19.82598736 6.61456542 -19.82598736 6.61456542 -17.9375 4 C-17.628125 3.34 -17.31875 2.68 -17 2 C-11.47810914 -0.86713564 -5.65295588 -3.69616346 0 0 Z " fill="#6C5752" transform="translate(285,44)"/>
<path d="M0 0 C0.79341797 0.00064453 1.58683594 0.00128906 2.40429688 0.00195312 C3.22865234 0.01806641 4.05300781 0.03417969 4.90234375 0.05078125 C5.73056641 0.04755859 6.55878906 0.04433594 7.41210938 0.04101562 C13.57271783 0.09615533 13.57271783 0.09615533 15.83984375 2.36328125 C10.55984375 2.36328125 5.27984375 2.36328125 -0.16015625 2.36328125 C-0.16015625 3.35328125 -0.16015625 4.34328125 -0.16015625 5.36328125 C-5.8775073 7.81357456 -9.95044852 8.69594416 -16.16015625 8.36328125 C-16.16015625 7.04328125 -16.16015625 5.72328125 -16.16015625 4.36328125 C-13.82154888 3.67036055 -12.05533838 3.36839432 -9.59765625 3.48828125 C-7.09953664 3.64266418 -7.09953664 3.64266418 -5.76782227 1.87817383 C-3.73319487 -0.03904151 -2.75521298 -0.01131818 0 0 Z " fill="#7E6E76" transform="translate(176.16015625,199.63671875)"/>
<path d="M0 0 C2.475 0.99 2.475 0.99 5 2 C6.55116761 6.00417686 5.91685657 10.09959411 5.5625 14.3125 C5.46066406 15.56675781 5.35882813 16.82101563 5.25390625 18.11328125 C5.17011719 19.06589844 5.08632813 20.01851562 5 21 C3 18 3 18 2 15 C1.67 17.31 1.34 19.62 1 22 C0.67 22 0.34 22 0 22 C0 14.74 0 7.48 0 0 Z " fill="#613139" transform="translate(267,130)"/>
<path d="M0 0 C0.66 1.32 1.32 2.64 2 4 C0.700625 4.5878125 0.700625 4.5878125 -0.625 5.1875 C-5.13497336 7.60952273 -9.31707993 9.9512398 -11 15 C-12.9375 15.5625 -12.9375 15.5625 -15 16 C-15.66 16.66 -16.32 17.32 -17 18 C-17.99 17.67 -18.98 17.34 -20 17 C-19.505 15.515 -19.505 15.515 -19 14 C-17.576875 13.319375 -17.576875 13.319375 -16.125 12.625 C-12.59543511 10.78962626 -11.8084043 9.44457962 -10 6 C-7.53745456 2.83387015 -4.77199553 2.14799864 -1 1 C-0.67 0.67 -0.34 0.34 0 0 Z " fill="#966C61" transform="translate(135,157)"/>
<path d="M0 0 C1.32 0.33 2.64 0.66 4 1 C1.92944956 4.29754329 0.1146953 6.88797203 -2.6875 9.625 C-4.90949215 11.90704599 -5.65631094 12.90679843 -6 16 C-7.670625 16.4640625 -7.670625 16.4640625 -9.375 16.9375 C-12.7945155 17.82326483 -12.7945155 17.82326483 -15 19 C-14.8125 16.6875 -14.8125 16.6875 -14 14 C-11.625 12.375 -11.625 12.375 -9 11 C-7.45833358 9.62514468 -7.45833358 9.62514468 -6 8 C-5.13375 7.175 -4.2675 6.35 -3.375 5.5 C-0.8187374 3.16311246 -0.8187374 3.16311246 0 0 Z " fill="#A88C98" transform="translate(206,144)"/>
<path d="M0 0 C0.66 0.33 1.32 0.66 2 1 C2 1.99 2 2.98 2 4 C7.61 4 13.22 4 19 4 C19 3.34 19 2.68 19 2 C21.31 2 23.62 2 26 2 C25.67 2.66 25.34 3.32 25 4 C22.51372463 4.81978273 20.09993315 5.508374 17.5625 6.125 C16.4806543 6.39328613 16.4806543 6.39328613 15.37695312 6.66699219 C9.86617701 7.95973457 4.66388225 8.49014366 -1 8 C-1.625 5.6875 -1.625 5.6875 -2 3 C-1.34 2.01 -0.68 1.02 0 0 Z " fill="#9E7775" transform="translate(175,128)"/>
<path d="M0 0 C4.62 0 9.24 0 14 0 C10.00896148 5.32138469 6.35106558 5.8350627 0 7 C-2.73158447 7.20060073 -5.25783137 7.15521709 -8 7 C-8 6.67 -8 6.34 -8 6 C-6.35 6 -4.7 6 -3 6 C-3 4.68 -3 3.36 -3 2 C-2.01 2 -1.02 2 0 2 C0 1.34 0 0.68 0 0 Z " fill="#634A43" transform="translate(288,0)"/>
<path d="M0 0 C2.475 0.495 2.475 0.495 5 1 C4.67 1.66 4.34 2.32 4 3 C2.68 2.34 1.36 1.68 0 1 C0 0.67 0 0.34 0 0 Z M17 1 C20.72189454 1.17059504 20.72189454 1.17059504 23.125 0.4375 C25 0 25 0 27 1 C25.625 2.5 25.625 2.5 24 4 C23.34 4 22.68 4 22 4 C22 4.66 22 5.32 22 6 C21.01 6 20.02 6 19 6 C19 5.34 19 4.68 19 4 C18.01 4.33 17.02 4.66 16 5 C13.51953125 4.66015625 13.51953125 4.66015625 10.8125 4.0625 C9.91144531 3.86785156 9.01039063 3.67320312 8.08203125 3.47265625 C7.05142578 3.23869141 7.05142578 3.23869141 6 3 C5.67 2.01 5.34 1.02 5 0 C9.75448185 -1.13201949 12.46044698 -0.6776609 17 1 Z " fill="#937E84" transform="translate(202,200)"/>
<path d="M0 0 C0.33 0 0.66 0 1 0 C1.02687279 1.81242052 1.04633715 3.62495233 1.0625 5.4375 C1.07410156 6.44683594 1.08570312 7.45617188 1.09765625 8.49609375 C1 11 1 11 0 12 C-0.07325168 14.86267567 -0.09238205 17.700719 -0.0625 20.5625 C-0.05798828 21.36880859 -0.05347656 22.17511719 -0.04882812 23.00585938 C-0.03700518 25.00393756 -0.01906914 27.00197783 0 29 C-0.66 29 -1.32 29 -2 29 C-3.30475618 26.39048764 -3.11301572 24.47298715 -3.09765625 21.5546875 C-3.09443359 20.47832031 -3.09121094 19.40195313 -3.08789062 18.29296875 C-3.07951172 17.16503906 -3.07113281 16.03710938 -3.0625 14.875 C-3.05798828 13.73933594 -3.05347656 12.60367188 -3.04882812 11.43359375 C-3.03701615 8.62234362 -3.02054507 5.8111977 -3 3 C-2.01 3 -1.02 3 0 3 C0 2.01 0 1.02 0 0 Z " fill="#513A3C" transform="translate(95,53)"/>
<path d="M0 0 C0.99 0.33 1.98 0.66 3 1 C3 2.98 3 4.96 3 7 C1.73160474 7.50615298 0.46016898 8.00469099 -0.8125 8.5 C-1.52019531 8.7784375 -2.22789062 9.056875 -2.95703125 9.34375 C-5 10 -5 10 -8 10 C-8 7.69 -8 5.38 -8 3 C-5.36 2.67 -2.72 2.34 0 2 C0 1.34 0 0.68 0 0 Z " fill="#785C68" transform="translate(216,320)"/>
<path d="M0 0 C-0.33 1.32 -0.66 2.64 -1 4 C-3.60409745 4.16781295 -6.2082682 4.33429651 -8.8125 4.5 C-9.91948242 4.57154297 -9.91948242 4.57154297 -11.04882812 4.64453125 C-14.03824588 4.83390613 -17.00374574 5 -20 5 C-19.34 4.67 -18.68 4.34 -18 4 C-18 3.34 -18 2.68 -18 2 C-11.92972642 -0.1583195 -6.40629424 -0.20852314 0 0 Z " fill="#966D62" transform="translate(169,144)"/>
<path d="M0 0 C0.99 0.33 1.98 0.66 3 1 C3.828125 2.8515625 3.828125 2.8515625 4 5 C3.109375 6.7109375 3.109375 6.7109375 1.75 8.375 C-0.61461098 11.42462363 -2.37141799 14.48569145 -4 18 C-4.33 18 -4.66 18 -5 18 C-5.37425983 12.88511563 -4.17541386 9.60183702 -2 5 C-1.32723284 3.3357865 -0.65793165 1.67013418 0 0 Z " fill="#92677A" transform="translate(261,127)"/>
<path d="M0 0 C1.2065625 0.0309375 1.2065625 0.0309375 2.4375 0.0625 C2.63836443 3.77849191 2.5894437 4.83458445 0.4375 8.0625 C1.0975 8.3925 1.7575 8.7225 2.4375 9.0625 C0.4575 10.0525 0.4575 10.0525 -1.5625 11.0625 C-1.8925 10.0725 -2.2225 9.0825 -2.5625 8.0625 C-3.2225 8.0625 -3.8825 8.0625 -4.5625 8.0625 C-3.54737544 0.08652135 -3.54737544 0.08652135 0 0 Z " fill="#8A5A65" transform="translate(252.5625,143.9375)"/>
<path d="M0 0 C-0.99 1.32 -1.98 2.64 -3 4 C-3.81726563 3.81566406 -4.63453125 3.63132813 -5.4765625 3.44140625 C-9.64211338 2.91955786 -13.24675407 3.33655281 -17.375 3.9375 C-18.11105469 4.03740234 -18.84710938 4.13730469 -19.60546875 4.24023438 C-21.40474077 4.48558965 -23.20254131 4.74169537 -25 5 C-24.67 4.01 -24.34 3.02 -24 2 C-22.68 2 -21.36 2 -20 2 C-18.26576658 1.69411946 -16.53667265 1.35826964 -14.8125 1 C-9.7660511 0.03683368 -5.12773267 -0.16812238 0 0 Z " fill="#9F888B" transform="translate(177,164)"/>
<path d="M0 0 C0.09765625 6.15234375 0.09765625 6.15234375 0 8 C-1 9 -1 9 -3.06640625 9.09765625 C-3.89011719 9.08605469 -4.71382812 9.07445312 -5.5625 9.0625 C-6.38878906 9.05347656 -7.21507812 9.04445312 -8.06640625 9.03515625 C-8.70449219 9.02355469 -9.34257812 9.01195312 -10 9 C-8.38405168 6.95880212 -6.7143618 4.95927063 -5 3 C-4.34 3 -3.68 3 -3 3 C-3 2.34 -3 1.68 -3 1 C-1 0 -1 0 0 0 Z " fill="#683843" transform="translate(256,167)"/>
<path d="M0 0 C0.33 0 0.66 0 1 0 C1 1.65 1 3.3 1 5 C1.62648437 5.02578125 2.25296875 5.0515625 2.8984375 5.078125 C4.12433594 5.16320312 4.12433594 5.16320312 5.375 5.25 C6.18710938 5.29640625 6.99921875 5.3428125 7.8359375 5.390625 C10 6 10 6 11.15625 7.90625 C11.4346875 8.5971875 11.713125 9.288125 12 10 C13.29470975 11.37086915 14.62150897 12.71340837 16 14 C13.69 13.34 11.38 12.68 9 12 C9 11.34 9 10.68 9 10 C7.68 10 6.36 10 5 10 C5 9.34 5 8.68 5 8 C4.34 8 3.68 8 3 8 C3 7.34 3 6.68 3 6 C1.35 6 -0.3 6 -2 6 C-1.34 5.67 -0.68 5.34 0 5 C-0.2784375 4.0409375 -0.2784375 4.0409375 -0.5625 3.0625 C-0.7790625 2.0415625 -0.7790625 2.0415625 -1 1 C-0.67 0.67 -0.34 0.34 0 0 Z " fill="#9D838B" transform="translate(210,110)"/>
<path d="M0 0 C1.02802734 0.00322266 2.05605469 0.00644531 3.11523438 0.00976562 C4.72301758 0.02233398 4.72301758 0.02233398 6.36328125 0.03515625 C7.44673828 0.03966797 8.53019531 0.04417969 9.64648438 0.04882812 C12.3229721 0.06061882 14.99934902 0.07707562 17.67578125 0.09765625 C13.93612161 2.59076268 12.38507484 2.15798235 7.98828125 1.72265625 C6.80878906 1.61179687 5.62929687 1.5009375 4.4140625 1.38671875 C3.51042969 1.29132813 2.60679687 1.1959375 1.67578125 1.09765625 C1.67578125 2.08765625 1.67578125 3.07765625 1.67578125 4.09765625 C-0.99088542 3.43098958 -3.65755208 2.76432292 -6.32421875 2.09765625 C-6.32421875 2.75765625 -6.32421875 3.41765625 -6.32421875 4.09765625 C-7.31421875 3.76765625 -8.30421875 3.43765625 -9.32421875 3.09765625 C-7.43906797 -0.67264531 -3.74687243 -0.02070095 0 0 Z " fill="#91777B" transform="translate(190.32421875,123.90234375)"/>
<path d="M0 0 C0.33 0.99 0.66 1.98 1 3 C-0.66666667 4.66666667 -2.33333333 6.33333333 -4 8 C-4.680625 8.7425 -5.36125 9.485 -6.0625 10.25 C-8.0942762 12.0851527 -9.32437 12.61776714 -12 13 C-12 12.01 -12 11.02 -12 10 C-10.53822023 8.7006402 -9.06783445 7.40702043 -7.5234375 6.20703125 C-5.89723253 4.9807737 -5.89723253 4.9807737 -4.3125 3.1875 C-3 2 -3 2 0 2 C0 1.34 0 0.68 0 0 Z " fill="#9B767D" transform="translate(205,144)"/>
<path d="M0 0 C0.33 0 0.66 0 1 0 C1 4.29 1 8.58 1 13 C0.67 12.34 0.34 11.68 0 11 C-4.29 11 -8.58 11 -13 11 C-12.67 10.01 -12.34 9.02 -12 8 C-8.04 8 -4.08 8 0 8 C0 5.36 0 2.72 0 0 Z " fill="#685D55" transform="translate(385,344)"/>
<path d="M0 0 C0.73089844 0.00298096 1.46179688 0.00596191 2.21484375 0.0090332 C3.01148438 0.00967773 3.808125 0.01032227 4.62890625 0.01098633 C5.87800781 0.03515625 5.87800781 0.03515625 7.15234375 0.05981445 C8.40144531 0.05498047 8.40144531 0.05498047 9.67578125 0.05004883 C15.8853412 0.1053119 15.8853412 0.1053119 18.15234375 2.37231445 C7.26234375 2.86731445 7.26234375 2.86731445 -3.84765625 3.37231445 C-1.84765625 0.37231445 -1.84765625 0.37231445 0 0 Z " fill="#8B7882" transform="translate(173.84765625,199.627685546875)"/>
<path d="M0 0 C0.66 0.66 1.32 1.32 2 2 C1.360625 2.28875 0.72125 2.5775 0.0625 2.875 C-2.15206079 3.82823451 -2.15206079 3.82823451 -3 6 C-1.68 5.67 -0.36 5.34 1 5 C0.01 6.485 0.01 6.485 -1 8 C-4.63 7.67 -8.26 7.34 -12 7 C-8.625 2.5 -8.625 2.5 -4.3125 1.25 C-3.50425781 1.00765625 -2.69601562 0.7653125 -1.86328125 0.515625 C-1.24839844 0.34546875 -0.63351562 0.1753125 0 0 Z " fill="#705B52" transform="translate(305,41)"/>
<path d="M0 0 C0.33 0.66 0.66 1.32 1 2 C-0.0725 2.103125 -1.145 2.20625 -2.25 2.3125 C-5.89924737 2.68465745 -5.89924737 2.68465745 -7.9375 4.5 C-11.09599166 6.79708484 -14.14270963 6.67855914 -18 7 C-17.26171875 5.07421875 -17.26171875 5.07421875 -16 3 C-14.08203125 2.20703125 -14.08203125 2.20703125 -11.8125 1.8125 C-11.01585937 1.66683594 -10.21921875 1.52117188 -9.3984375 1.37109375 C-8.21121094 1.18740234 -8.21121094 1.18740234 -7 1 C-6.29101562 0.88785156 -5.58203125 0.77570312 -4.8515625 0.66015625 C-3.23728836 0.41966235 -1.61895149 0.20667466 0 0 Z " fill="#6B574E" transform="translate(356,17)"/>
<path d="M0 0 C0.66 0.99 1.32 1.98 2 3 C-4.6 3.33 -11.2 3.66 -18 4 C-13.5389206 -0.4610794 -5.98055218 -0.51556484 0 0 Z " fill="#81615A" transform="translate(288,128)"/>
<path d="M0 0 C1.32 0.33 2.64 0.66 4 1 C4 3.31 4 5.62 4 8 C3.01 8.495 3.01 8.495 2 9 C1.59270772 11.32156597 1.25561323 13.6568787 1 16 C0.67 16 0.34 16 0 16 C0 10.72 0 5.44 0 0 Z " fill="#7F767C" transform="translate(92,200)"/>
<path d="M0 0 C0 0.99 0 1.98 0 3 C-4.29 3 -8.58 3 -13 3 C-11 0 -11 0 -8.75 -0.75 C-5.65002866 -1.03181558 -3.03692247 -0.63563494 0 0 Z " fill="#71555A" transform="translate(216,120)"/>
<path d="M0 0 C0.33 0.66 0.66 1.32 1 2 C1.66 2 2.32 2 3 2 C3 1.34 3 0.68 3 0 C3.99 0.33 4.98 0.66 6 1 C6.66 0.67 7.32 0.34 8 0 C8.99 0.33 9.98 0.66 11 1 C9.375 3 9.375 3 7 5 C3.75 5.25 3.75 5.25 1 5 C0.67 5.99 0.34 6.98 0 8 C0 5.36 0 2.72 0 0 Z " fill="#6E4E56" transform="translate(92,80)"/>
<path d="M0 0 C0 0.66 0 1.32 0 2 C-0.99 2 -1.98 2 -3 2 C-3.66 4.97 -4.32 7.94 -5 11 C-5.66 11 -6.32 11 -7 11 C-7.8125 7.75 -7.8125 7.75 -8 4 C-5.28876321 1.06282681 -4.03680571 0 0 0 Z " fill="#8A5F74" transform="translate(248,169)"/>
<path d="M0 0 C0.66 0.33 1.32 0.66 2 1 C-0.97 3.97 -3.94 6.94 -7 10 C-7.66 9.67 -8.32 9.34 -9 9 C-9 8.01 -9 7.02 -9 6 C-7.03125 4.39453125 -7.03125 4.39453125 -4.5 2.8125 C-3.6646875 2.28269531 -2.829375 1.75289062 -1.96875 1.20703125 C-0.99421875 0.60955078 -0.99421875 0.60955078 0 0 Z " fill="#66504B" transform="translate(262,53)"/>
<path d="M0 0 C2.475 0.99 2.475 0.99 5 2 C4.67 3.32 4.34 4.64 4 6 C4 5.01 4 4.02 4 3 C3.01 3 2.02 3 1 3 C1 9.27 1 15.54 1 22 C0.67 22 0.34 22 0 22 C0 14.74 0 7.48 0 0 Z " fill="#663A43" transform="translate(267,130)"/>
<path d="M0 0 C1.98 0 3.96 0 6 0 C4.33400078 2.79751404 3.46797784 3.85642358 0.30078125 4.828125 C-0.68535156 4.96734375 -1.67148437 5.1065625 -2.6875 5.25 C-3.68136719 5.39953125 -4.67523438 5.5490625 -5.69921875 5.703125 C-6.45847656 5.80109375 -7.21773438 5.8990625 -8 6 C-8 5.34 -8 4.68 -8 4 C-5.36 3.34 -2.72 2.68 0 2 C0 1.34 0 0.68 0 0 Z " fill="#6F564F" transform="translate(296,0)"/>
<path d="M0 0 C0.66 0.33 1.32 0.66 2 1 C1.67 1.33 1.34 1.66 1 2 C4.96 2.33 8.92 2.66 13 3 C13 3.33 13 3.66 13 4 C7.72 4 2.44 4 -3 4 C-3 3.01 -3 2.02 -3 1 C-2.01 0.67 -1.02 0.34 0 0 Z " fill="#7D6165" transform="translate(203,120)"/>
<path d="M0 0 C0.53625 0.391875 1.0725 0.78375 1.625 1.1875 C-0.85 2.6725 -0.85 2.6725 -3.375 4.1875 C-3.375 3.5275 -3.375 2.8675 -3.375 2.1875 C-4.138125 2.703125 -4.90125 3.21875 -5.6875 3.75 C-6.574375 4.224375 -7.46125 4.69875 -8.375 5.1875 C-9.365 4.8575 -10.355 4.5275 -11.375 4.1875 C-3.36630435 -1.15163043 -3.36630435 -1.15163043 0 0 Z " fill="#6B524E" transform="translate(283.375,42.8125)"/>
<path d="M0 0 C-0.33 0.66 -0.66 1.32 -1 2 C-2.33076989 2.34342449 -3.66431979 2.67619874 -5 3 C-5.66 3.66 -6.32 4.32 -7 5 C-7.99 4.67 -8.98 4.34 -10 4 C-9.67 3.01 -9.34 2.02 -9 1 C-6.04335481 -0.4783226 -3.25770263 -0.06032783 0 0 Z " fill="#9C7B77" transform="translate(125,170)"/>
<path d="M0 0 C3.3 0 6.6 0 10 0 C10 0.99 10 1.98 10 3 C7.33333333 2.33333333 4.66666667 1.66666667 2 1 C2 1.66 2 2.32 2 3 C1.01 2.67 0.02 2.34 -1 2 C-0.67 1.34 -0.34 0.68 0 0 Z " fill="#A2898C" transform="translate(182,125)"/>
<path d="M0 0 C0 1.32 0 2.64 0 4 C-2.64 4 -5.28 4 -8 4 C-4.5 0 -4.5 0 0 0 Z " fill="#816D77" transform="translate(224,355)"/>
<path d="M0 0 C1.32 0.33 2.64 0.66 4 1 C1.64480474 4.79448125 -0.9630133 6.20578369 -5 8 C-3.25 4.125 -3.25 4.125 -1 3 C-0.67 2.01 -0.34 1.02 0 0 Z " fill="#A9828A" transform="translate(206,144)"/>
<path d="M0 0 C0.99 0.33 1.98 0.66 3 1 C4.125 5.75 4.125 5.75 3 8 C2.01 7.67 1.02 7.34 0 7 C0 4.69 0 2.38 0 0 Z " fill="#99706C" transform="translate(206,136)"/>
<path d="M0 0 C-2.64738916 1.4606285 -3.89448334 2 -7 2 C-7 2.66 -7 3.32 -7 4 C-8.65 4 -10.3 4 -12 4 C-8.66437635 0.13769893 -4.98576775 -1.84658065 0 0 Z " fill="#775F57" transform="translate(279,44)"/>
<path d="M0 0 C2.475 0.495 2.475 0.495 5 1 C4.34 2.32 3.68 3.64 3 5 C2.01 4.67 1.02 4.34 0 4 C0 2.68 0 1.36 0 0 Z " fill="#774652" transform="translate(250,146)"/>
<path d="M0 0 C0.99 0.495 0.99 0.495 2 1 C1.01 1.495 1.01 1.495 0 2 C0 1.34 0 0.68 0 0 Z M-3 2 C-2.01 2.33 -1.02 2.66 0 3 C-1.32 4.32 -2.64 5.64 -4 7 C-4.99 6.67 -5.98 6.34 -7 6 C-5.68 4.68 -4.36 3.36 -3 2 Z " fill="#9A746A" transform="translate(128,163)"/>
<path d="M0 0 C0.33 0.66 0.66 1.32 1 2 C1.99 2.33 2.98 2.66 4 3 C3.67 3.66 3.34 4.32 3 5 C0.69 4.67 -1.62 4.34 -4 4 C-3.67 3.34 -3.34 2.68 -3 2 C-2.01 2 -1.02 2 0 2 C0 1.34 0 0.68 0 0 Z " fill="#67525E" transform="translate(215,350)"/>
</svg>
